<?xml version="1.0" encoding="utf-8"?>
<!-- Generator: Adobe Illustrator 24.0.1, SVG Export Plug-In . SVG Version: 6.00 Build 0)  -->
<svg version="1.1" id="Capa_1" xmlns="http://www.w3.org/2000/svg" xmlns:xlink="http://www.w3.org/1999/xlink" x="0px" y="0px"
	 viewBox="0 0 135 105" style="enable-background:new 0 0 135 105;" xml:space="preserve">
<style type="text/css">
	.st0{fill:none;}
	.st1{fill:#414B50;}
	.st2{enable-background:new    ;}
</style>
<g id="Grupo_101" transform="translate(-206 -384)">
	<rect id="Rectángulo_115" x="210.5" y="384" class="st0" width="126" height="105"/>
	<g id="Grupo_27" transform="translate(-26 223.105)">
		<path id="Trazado_46" class="st1" d="M290.6,170.1c-1.1,0-2.1,1.3-2.1,2.9v5.7h4.1c0-3.2,0-5.6,0-8.6L290.6,170.1z"/>
		<path id="Trazado_47" class="st1" d="M300.1,170.1c-1.1,0-2.1,1.3-2.1,2.9v5.7h4.1c0-3.2,0-5.6,0-8.6L300.1,170.1z"/>
		<path id="Trazado_48" class="st1" d="M309.6,170.1c-1.1,0-2.1,1.3-2.1,2.9v5.7h4.1c0-3.2,0-5.6,0-8.6L309.6,170.1z"/>
		<path id="Trazado_52" class="st1" d="M294.5,181.7H294c-1.4,0-1.4-1.8-1.4-1.8v-14.4h1.8V181.7z"/>
		<path id="Trazado_53" class="st1" d="M304.1,181.7h-0.5c-1.4,0-1.4-1.8-1.4-1.8v-14.4h1.8V181.7z"/>
		<path id="Trazado_54" class="st1" d="M313.6,181.7h-0.5c-1.4,0-1.4-1.8-1.4-1.8v-14.4h1.8V181.7z"/>
		<g id="Grupo_26" transform="translate(270 176.534)">
			<path id="Trazado_49" class="st1" d="M4.5,15.2v12.7c0,8.4,6.8,15.2,15.2,15.2h20.2C48.2,43,55,36.2,55,27.9V0H19.7
				C11.3,0,4.5,6.8,4.5,15.2z M47.4,27.9c0,4.2-3.4,7.6-7.6,7.6H19.7c-4.2,0-7.6-3.4-7.6-7.6V15.2c0-4.2,3.4-7.6,7.6-7.6h27.8V27.9z
				"/>
			<g id="Grupo_25" transform="translate(12.291 14.022)">
				<path id="Rectángulo_76" class="st1" d="M7.5,0h1.6c1.7,0,3,1.3,3,3v0.6c0,1.7-1.3,3-3,3H7.5c-1.7,0-3-1.3-3-3V3
					C4.5,1.3,5.8,0,7.5,0z"/>
				<path id="Rectángulo_81" class="st1" d="M7.5,8.5h1.6c1.7,0,3,1.3,3,3v0.6c0,1.7-1.3,3-3,3H7.5c-1.7,0-3-1.3-3-3v-0.6
					C4.5,9.9,5.8,8.5,7.5,8.5z"/>
				<path id="Rectángulo_77" class="st1" d="M17,0h1.6c1.7,0,3,1.3,3,3v0.6c0,1.7-1.3,3-3,3H17c-1.7,0-3-1.3-3-3V3
					C14,1.3,15.3,0,17,0z"/>
				<path id="Rectángulo_79" class="st1" d="M17,8.5h1.6c1.7,0,3,1.3,3,3v0.6c0,1.7-1.3,3-3,3H17c-1.7,0-3-1.3-3-3v-0.6
					C14,9.9,15.3,8.5,17,8.5z"/>
				<path id="Rectángulo_78" class="st1" d="M26.4,0H28c1.7,0,3,1.3,3,3v0.6c0,1.7-1.3,3-3,3h-1.6c-1.7,0-3-1.3-3-3V3
					C23.4,1.3,24.8,0,26.4,0z"/>
				<path id="Rectángulo_80" class="st1" d="M26.4,8.5H28c1.7,0,3,1.3,3,3v0.6c0,1.7-1.3,3-3,3h-1.6c-1.7,0-3-1.3-3-3v-0.6
					C23.4,9.9,24.8,8.5,26.4,8.5z"/>
			</g>
		</g>
	</g>
	<g class="st2">
		<path class="st1" d="M241.4,461.3c-0.2,1.4-0.7,2.4-1.5,3.1c-0.8,0.7-2,1.1-3.4,1.1c-1.5,0-2.7-0.5-3.6-1.6s-1.4-2.5-1.4-4.4v-1.2
			c0-1.2,0.2-2.2,0.6-3.1s1-1.6,1.8-2.1c0.8-0.5,1.7-0.7,2.7-0.7c1.4,0,2.4,0.4,3.3,1.1s1.3,1.8,1.4,3.2h-1.7c-0.1-1-0.5-1.8-1-2.2
			c-0.5-0.5-1.2-0.7-2.1-0.7c-1.1,0-1.9,0.4-2.5,1.2s-0.9,1.9-0.9,3.4v1.2c0,1.4,0.3,2.5,0.9,3.3s1.4,1.2,2.4,1.2
			c0.9,0,1.7-0.2,2.2-0.6c0.5-0.4,0.8-1.2,1-2.2H241.4z"/>
		<path class="st1" d="M249.4,465.4c-0.1-0.2-0.2-0.5-0.2-1c-0.8,0.8-1.7,1.2-2.7,1.2c-0.9,0-1.7-0.3-2.3-0.8s-0.9-1.2-0.9-2
			c0-1,0.4-1.8,1.1-2.3s1.8-0.8,3.2-0.8h1.6v-0.7c0-0.6-0.2-1-0.5-1.4c-0.3-0.3-0.8-0.5-1.5-0.5c-0.6,0-1.1,0.1-1.5,0.4
			s-0.6,0.6-0.6,1.1h-1.6c0-0.5,0.2-0.9,0.5-1.4s0.8-0.8,1.4-1.1s1.2-0.4,1.9-0.4c1.1,0,2,0.3,2.6,0.8s0.9,1.3,1,2.3v4.4
			c0,0.9,0.1,1.6,0.3,2.1v0.1H249.4z M246.7,464.1c0.5,0,1-0.1,1.5-0.4s0.8-0.6,1-1v-2h-1.3c-2,0-3,0.6-3,1.7c0,0.5,0.2,0.9,0.5,1.2
			S246.2,464.1,246.7,464.1z"/>
		<path class="st1" d="M255.2,465.4h-1.6v-13.5h1.6V465.4z"/>
		<path class="st1" d="M261.8,465.5c-1.3,0-2.3-0.4-3.1-1.3s-1.2-2-1.2-3.4v-0.3c0-0.9,0.2-1.8,0.5-2.5s0.9-1.3,1.5-1.7
			s1.3-0.6,2.1-0.6c1.2,0,2.2,0.4,2.9,1.2s1,2,1,3.5v0.7H259c0,0.9,0.3,1.7,0.8,2.3c0.5,0.6,1.2,0.9,2,0.9c0.6,0,1.1-0.1,1.5-0.4
			s0.7-0.5,1-0.9l1,0.8C264.6,464.9,263.4,465.5,261.8,465.5z M261.6,457c-0.7,0-1.2,0.2-1.7,0.7s-0.7,1.1-0.8,2h4.8v-0.1
			c0-0.8-0.3-1.5-0.7-1.9S262.3,457,261.6,457z"/>
		<path class="st1" d="M269,455.9l0.1,1.2c0.7-0.9,1.7-1.4,2.8-1.4c2,0,3,1.1,3,3.4v6.3h-1.6v-6.3c0-0.7-0.2-1.2-0.5-1.5
			s-0.8-0.5-1.4-0.5c-0.5,0-1,0.1-1.4,0.4s-0.7,0.7-0.9,1.1v6.8h-1.6v-9.5H269z"/>
		<path class="st1" d="M277,460.5c0-1.5,0.3-2.6,1-3.5c0.7-0.9,1.6-1.3,2.7-1.3c1.1,0,2,0.4,2.6,1.1v-5h1.6v13.5h-1.5l-0.1-1
			c-0.7,0.8-1.6,1.2-2.7,1.2c-1.1,0-2-0.5-2.7-1.4s-1-2.1-1-3.5V460.5z M278.7,460.7c0,1.1,0.2,1.9,0.7,2.5s1.1,0.9,1.8,0.9
			c1,0,1.8-0.5,2.3-1.4v-4.4c-0.5-0.9-1.2-1.3-2.2-1.3c-0.8,0-1.4,0.3-1.9,0.9S278.7,459.5,278.7,460.7z"/>
		<path class="st1" d="M293.5,465.4c-0.1-0.2-0.2-0.5-0.2-1c-0.8,0.8-1.7,1.2-2.7,1.2c-0.9,0-1.7-0.3-2.3-0.8s-0.9-1.2-0.9-2
			c0-1,0.4-1.8,1.1-2.3s1.8-0.8,3.2-0.8h1.6v-0.7c0-0.6-0.2-1-0.5-1.4c-0.3-0.3-0.8-0.5-1.5-0.5c-0.6,0-1.1,0.1-1.5,0.4
			s-0.6,0.6-0.6,1.1h-1.6c0-0.5,0.2-0.9,0.5-1.4s0.8-0.8,1.4-1.1s1.2-0.4,1.9-0.4c1.1,0,2,0.3,2.6,0.8s0.9,1.3,1,2.3v4.4
			c0,0.9,0.1,1.6,0.3,2.1v0.1H293.5z M290.8,464.1c0.5,0,1-0.1,1.5-0.4s0.8-0.6,1-1v-2H292c-2,0-3,0.6-3,1.7c0,0.5,0.2,0.9,0.5,1.2
			S290.3,464.1,290.8,464.1z"/>
		<path class="st1" d="M302.1,457.3c-0.2,0-0.5-0.1-0.8-0.1c-1.1,0-1.8,0.5-2.2,1.4v6.8h-1.6v-9.5h1.6l0,1.1
			c0.5-0.8,1.3-1.3,2.3-1.3c0.3,0,0.6,0,0.7,0.1V457.3z"/>
		<path class="st1" d="M303.7,453.3c0-0.3,0.1-0.5,0.2-0.7s0.4-0.3,0.7-0.3s0.6,0.1,0.7,0.3s0.2,0.4,0.2,0.7s-0.1,0.5-0.2,0.7
			s-0.4,0.3-0.7,0.3s-0.6-0.1-0.7-0.3S303.7,453.6,303.7,453.3z M305.5,465.4h-1.6v-9.5h1.6V465.4z"/>
		<path class="st1" d="M307.7,460.5c0-0.9,0.2-1.8,0.5-2.5s0.9-1.3,1.5-1.7s1.4-0.6,2.2-0.6c1.3,0,2.3,0.4,3.1,1.3s1.2,2.1,1.2,3.6
			v0.1c0,0.9-0.2,1.8-0.5,2.5c-0.4,0.7-0.9,1.3-1.5,1.7s-1.4,0.6-2.3,0.6c-1.3,0-2.3-0.4-3.1-1.3s-1.2-2.1-1.2-3.6V460.5z
			 M309.3,460.7c0,1.1,0.2,1.9,0.7,2.5s1.1,1,2,1c0.8,0,1.5-0.3,2-1c0.5-0.6,0.7-1.6,0.7-2.7c0-1-0.2-1.9-0.7-2.5
			c-0.5-0.6-1.2-1-2-1c-0.8,0-1.5,0.3-1.9,1S309.3,459.5,309.3,460.7z"/>
	</g>
	<g class="st2">
		<path class="st1" d="M237,478.5c0-1.5,0.3-2.6,1-3.5c0.7-0.9,1.6-1.3,2.7-1.3c1.1,0,2,0.4,2.6,1.1v-5h1.6v13.5h-1.5l-0.1-1
			c-0.7,0.8-1.6,1.2-2.7,1.2c-1.1,0-2-0.5-2.7-1.4s-1-2.1-1-3.5V478.5z M238.6,478.7c0,1.1,0.2,1.9,0.7,2.5s1.1,0.9,1.8,0.9
			c1,0,1.8-0.5,2.3-1.4v-4.4c-0.5-0.9-1.2-1.3-2.2-1.3c-0.8,0-1.4,0.3-1.9,0.9S238.6,477.5,238.6,478.7z"/>
		<path class="st1" d="M251.6,483.5c-1.3,0-2.3-0.4-3.1-1.3s-1.2-2-1.2-3.4v-0.3c0-0.9,0.2-1.8,0.5-2.5s0.9-1.3,1.5-1.7
			s1.3-0.6,2.1-0.6c1.2,0,2.2,0.4,2.9,1.2s1,2,1,3.5v0.7h-6.4c0,0.9,0.3,1.7,0.8,2.3c0.5,0.6,1.2,0.9,2,0.9c0.6,0,1.1-0.1,1.5-0.4
			s0.7-0.5,1-0.9l1,0.8C254.4,482.9,253.2,483.5,251.6,483.5z M251.4,475c-0.7,0-1.2,0.2-1.7,0.7s-0.7,1.1-0.8,2h4.8v-0.1
			c0-0.8-0.3-1.5-0.7-1.9S252.1,475,251.4,475z"/>
		<path class="st1" d="M263.7,478.4v5H262v-12.8h4.7c1.4,0,2.5,0.4,3.3,1.1s1.2,1.7,1.2,2.8c0,1.2-0.4,2.2-1.2,2.9s-1.9,1-3.3,1
			H263.7z M263.7,477h3c0.9,0,1.6-0.2,2.1-0.6c0.5-0.4,0.7-1,0.7-1.8c0-0.8-0.2-1.4-0.7-1.8s-1.1-0.7-2-0.7h-3.1V477z"/>
		<path class="st1" d="M279,483.4c-0.1-0.2-0.2-0.5-0.2-1c-0.8,0.8-1.7,1.2-2.7,1.2c-0.9,0-1.7-0.3-2.3-0.8s-0.9-1.2-0.9-2
			c0-1,0.4-1.8,1.1-2.3s1.8-0.8,3.2-0.8h1.6v-0.7c0-0.6-0.2-1-0.5-1.4c-0.3-0.3-0.8-0.5-1.5-0.5c-0.6,0-1.1,0.1-1.5,0.4
			s-0.6,0.6-0.6,1.1H273c0-0.5,0.2-0.9,0.5-1.4s0.8-0.8,1.4-1.1s1.2-0.4,1.9-0.4c1.1,0,2,0.3,2.6,0.8s0.9,1.3,1,2.3v4.4
			c0,0.9,0.1,1.6,0.3,2.1v0.1H279z M276.3,482.1c0.5,0,1-0.1,1.5-0.4s0.8-0.6,1-1v-2h-1.3c-2,0-3,0.6-3,1.7c0,0.5,0.2,0.9,0.5,1.2
			S275.7,482.1,276.3,482.1z"/>
		<path class="st1" d="M282.6,478.5c0-1.5,0.3-2.7,1-3.5s1.6-1.3,2.7-1.3c1.2,0,2.1,0.4,2.7,1.2l0.1-1.1h1.5v9.3
			c0,1.2-0.4,2.2-1.1,2.9s-1.7,1.1-2.9,1.1c-0.7,0-1.4-0.1-2-0.4s-1.2-0.7-1.5-1.2l0.8-1c0.7,0.9,1.5,1.3,2.6,1.3
			c0.8,0,1.4-0.2,1.8-0.7s0.7-1.1,0.7-1.9v-0.8c-0.7,0.8-1.5,1.1-2.7,1.1c-1.1,0-2-0.4-2.7-1.3S282.6,480.1,282.6,478.5z
			 M284.2,478.7c0,1.1,0.2,1.9,0.7,2.5c0.4,0.6,1.1,0.9,1.8,0.9c1,0,1.8-0.5,2.3-1.4v-4.3c-0.5-0.9-1.2-1.4-2.2-1.4
			c-0.8,0-1.4,0.3-1.9,0.9S284.2,477.5,284.2,478.7z"/>
		<path class="st1" d="M292.7,478.5c0-0.9,0.2-1.8,0.5-2.5s0.9-1.3,1.5-1.7s1.4-0.6,2.2-0.6c1.3,0,2.3,0.4,3.1,1.3s1.2,2.1,1.2,3.6
			v0.1c0,0.9-0.2,1.8-0.5,2.5c-0.4,0.7-0.9,1.3-1.5,1.7s-1.4,0.6-2.3,0.6c-1.3,0-2.3-0.4-3.1-1.3s-1.2-2.1-1.2-3.6V478.5z
			 M294.3,478.7c0,1.1,0.2,1.9,0.7,2.5s1.1,1,2,1c0.8,0,1.5-0.3,2-1c0.5-0.6,0.7-1.6,0.7-2.7c0-1-0.2-1.9-0.7-2.5
			c-0.5-0.6-1.2-1-2-1c-0.8,0-1.5,0.3-1.9,1S294.3,477.5,294.3,478.7z"/>
		<path class="st1" d="M309,480.8c0-0.4-0.2-0.8-0.5-1c-0.3-0.2-0.9-0.5-1.7-0.6s-1.5-0.4-2-0.6s-0.8-0.5-1.1-0.9s-0.3-0.7-0.3-1.2
			c0-0.8,0.3-1.4,1-2s1.5-0.8,2.5-0.8c1.1,0,2,0.3,2.6,0.8s1,1.3,1,2.1h-1.6c0-0.4-0.2-0.8-0.6-1.2s-0.9-0.5-1.4-0.5
			c-0.6,0-1.1,0.1-1.4,0.4s-0.5,0.6-0.5,1c0,0.4,0.2,0.7,0.5,0.9s0.9,0.4,1.7,0.6s1.5,0.4,2,0.7s0.9,0.6,1.1,0.9
			c0.2,0.4,0.4,0.8,0.4,1.3c0,0.8-0.3,1.5-1,2c-0.7,0.5-1.6,0.8-2.6,0.8c-0.8,0-1.4-0.1-2-0.4s-1-0.6-1.4-1.1
			c-0.3-0.5-0.5-1-0.5-1.6h1.6c0,0.5,0.2,1,0.7,1.3c0.4,0.3,0.9,0.5,1.6,0.5c0.6,0,1.1-0.1,1.5-0.4C308.8,481.6,309,481.3,309,480.8
			z"/>
	</g>
</g>
</svg>
