<?xml version="1.0" encoding="utf-8"?>
<!-- Generator: Adobe Illustrator 24.0.2, SVG Export Plug-In . SVG Version: 6.00 Build 0)  -->
<svg version="1.1" id="Capa_1" xmlns="http://www.w3.org/2000/svg" xmlns:xlink="http://www.w3.org/1999/xlink" x="0px" y="0px"
	 viewBox="0 0 63 70.6" style="enable-background:new 0 0 63 70.6;" xml:space="preserve">
<style type="text/css">
	.st0{opacity:0.461;}
	.st1{fill:#414B50;}
	.st2{enable-background:new    ;}
	.st3{fill:#C00D0D;stroke:#FFFFFF;stroke-width:2;}
</style>
<g id="Grupo_108" transform="translate(-267 -257.744)">
	<g id="Grupo_69" transform="translate(273.479 257.744)" class="st0">
		<path id="Trazado_368" class="st1" d="M21.9,6.8H7.7C3.6,6.7,0.1,9.9,0,14.1l0,31.9c0,0,5.5,0,7.7,0h15.6c4.1,0.1,7.6-3.1,7.7-7.2
			V15h-9.3L21.9,6.8z M25.8,17.9L25.9,37c0,3.1-0.9,3.5-4.4,3.5H5.3l0.1-24.8c0-3,1.8-3.6,5-3.6h8.5v5.8L25.8,17.9z"/>
		<g id="Grupo_55" transform="translate(9.573 21.911)">
			<path id="Trazado_369" class="st1" d="M11.3,14.1H0v0.7c0,0.4,0.3,0.7,0.7,0.7c0,0,0,0,0,0H12v-0.7C12,14.4,11.7,14.1,11.3,14.1
				C11.3,14.1,11.3,14.1,11.3,14.1z"/>
			<path id="Trazado_370" class="st1" d="M11.3,4.7H0v0.7C0,5.7,0.3,6,0.7,6c0,0,0,0,0,0H12V5.3C12,5,11.7,4.7,11.3,4.7
				C11.3,4.7,11.3,4.7,11.3,4.7z"/>
			<path id="Trazado_371" class="st1" d="M11.3,9.4H0V10c0,0.4,0.3,0.7,0.7,0.7c0,0,0,0,0,0H12V10C12,9.7,11.7,9.4,11.3,9.4z"/>
			<path id="Trazado_372" class="st1" d="M11.3,0H0v0.7C0,1,0.3,1.3,0.7,1.3c0,0,0,0,0,0H12V0.7C12,0.3,11.7,0,11.3,0z"/>
		</g>
		<path id="Trazado_373" class="st1" d="M9.6,21.9v0.7c0,0.4,0.3,0.7,0.7,0.7c0,0,0,0,0,0h11.3v-0.7c0-0.4-0.3-0.7-0.7-0.7H9.6z"/>
		<path id="Trazado_374" class="st1" d="M20.9,26.6H9.6v0.7c0,0.4,0.3,0.7,0.7,0.7c0,0,0,0,0,0h11.3v-0.7
			C21.6,26.9,21.3,26.6,20.9,26.6C20.9,26.6,20.9,26.6,20.9,26.6z"/>
		<path id="Trazado_375" class="st1" d="M20.9,31.3H9.6v0.7c0,0.4,0.3,0.7,0.7,0.7c0,0,0,0,0,0h11.3v-0.7
			C21.6,31.6,21.3,31.3,20.9,31.3z"/>
		<path id="Trazado_376" class="st1" d="M20.9,36H9.6v0.7c0,0.4,0.3,0.7,0.7,0.7c0,0,0,0,0,0h11.3v-0.7C21.6,36.3,21.3,36,20.9,36
			C20.9,36,20.9,36,20.9,36z"/>
		<path id="Trazado_377" class="st1" d="M11.3,17.9h5.9V15H9.4v1.3C9.5,17.2,10.4,17.9,11.3,17.9z"/>
		<g id="Grupo_57" transform="translate(23.436 7.617)">
			<g id="Grupo_56" transform="translate(0 0)">
				<path id="Trazado_378" class="st1" d="M1.5,1.5L0,0v5.8h5.8l-1-1L1.5,1.5z"/>
			</g>
		</g>
		<path id="Trazado_379" class="st1" d="M31.4,5.1L26.3,0H14.2C9.8,0,10,4.8,10.1,5.3h0.4c0,0,12,0,13,0h0.6l8.6,8.7l0.1,25.2
			c0.8,0,1.2,0,1.9,0C38,39.1,38,35,38,35V11.7L31.4,5.1z"/>
	</g>
	<g class="st2">
		<path class="st1" d="M268.1,318.4v-9.2h2.6c0.8,0,1.5,0.2,2.1,0.5s1.1,0.9,1.4,1.5c0.3,0.7,0.5,1.4,0.5,2.3v0.6
			c0,0.9-0.2,1.6-0.5,2.3c-0.3,0.7-0.8,1.2-1.4,1.5c-0.6,0.4-1.4,0.5-2.2,0.5H268.1z M269.3,310.1v7.3h1.3c0.9,0,1.7-0.3,2.2-0.9
			c0.5-0.6,0.8-1.4,0.8-2.5v-0.5c0-1.1-0.2-1.9-0.7-2.4c-0.5-0.6-1.2-0.9-2.1-0.9H269.3z"/>
		<path class="st1" d="M279.3,318.5c-0.9,0-1.7-0.3-2.3-0.9s-0.9-1.4-0.9-2.5v-0.2c0-0.7,0.1-1.3,0.4-1.8c0.3-0.5,0.6-1,1.1-1.3
			c0.5-0.3,1-0.5,1.5-0.5c0.9,0,1.6,0.3,2.1,0.9c0.5,0.6,0.7,1.4,0.7,2.5v0.5h-4.7c0,0.7,0.2,1.2,0.6,1.6c0.4,0.4,0.9,0.6,1.4,0.6
			c0.4,0,0.8-0.1,1.1-0.3c0.3-0.2,0.5-0.4,0.8-0.7l0.7,0.6C281.3,318.1,280.5,318.5,279.3,318.5z M279.2,312.3
			c-0.5,0-0.9,0.2-1.2,0.5s-0.5,0.8-0.6,1.5h3.4v-0.1c0-0.6-0.2-1.1-0.5-1.4S279.7,312.3,279.2,312.3z"/>
		<path class="st1" d="M287.4,316.5c0-0.3-0.1-0.6-0.4-0.7c-0.2-0.2-0.7-0.3-1.3-0.5c-0.6-0.1-1.1-0.3-1.4-0.5
			c-0.3-0.2-0.6-0.4-0.8-0.6c-0.2-0.2-0.3-0.5-0.3-0.9c0-0.6,0.2-1,0.7-1.4c0.5-0.4,1.1-0.6,1.8-0.6c0.8,0,1.4,0.2,1.9,0.6
			c0.5,0.4,0.7,0.9,0.7,1.5h-1.2c0-0.3-0.1-0.6-0.4-0.8c-0.3-0.2-0.6-0.3-1-0.3c-0.4,0-0.8,0.1-1,0.3s-0.4,0.4-0.4,0.7
			c0,0.3,0.1,0.5,0.3,0.6s0.6,0.3,1.2,0.4c0.6,0.1,1.1,0.3,1.4,0.5c0.4,0.2,0.6,0.4,0.8,0.7c0.2,0.3,0.3,0.6,0.3,0.9
			c0,0.6-0.2,1.1-0.7,1.5s-1.1,0.6-1.9,0.6c-0.6,0-1-0.1-1.5-0.3s-0.8-0.5-1-0.8c-0.2-0.3-0.4-0.7-0.4-1.1h1.2
			c0,0.4,0.2,0.7,0.5,0.9c0.3,0.2,0.7,0.3,1.2,0.3c0.4,0,0.8-0.1,1.1-0.3C287.3,317.1,287.4,316.9,287.4,316.5z"/>
		<path class="st1" d="M293,317.5c0.4,0,0.8-0.1,1.1-0.4s0.5-0.6,0.5-1h1.1c0,0.4-0.2,0.8-0.4,1.1s-0.6,0.6-1,0.9
			c-0.4,0.2-0.9,0.3-1.3,0.3c-0.9,0-1.7-0.3-2.2-0.9c-0.6-0.6-0.8-1.5-0.8-2.6v-0.2c0-0.7,0.1-1.3,0.4-1.8c0.2-0.5,0.6-0.9,1.1-1.2
			c0.5-0.3,1-0.4,1.6-0.4c0.8,0,1.4,0.2,1.9,0.7c0.5,0.5,0.8,1.1,0.8,1.8h-1.1c0-0.4-0.2-0.8-0.5-1.1c-0.3-0.3-0.7-0.4-1.1-0.4
			c-0.6,0-1.1,0.2-1.4,0.6c-0.3,0.4-0.5,1-0.5,1.9v0.2c0,0.8,0.2,1.4,0.5,1.8S292.3,317.5,293,317.5z"/>
		<path class="st1" d="M301.3,318.4c-0.1-0.1-0.1-0.4-0.2-0.7c-0.5,0.6-1.2,0.9-2,0.9c-0.7,0-1.2-0.2-1.7-0.6
			c-0.4-0.4-0.7-0.9-0.7-1.5c0-0.7,0.3-1.3,0.8-1.7c0.5-0.4,1.3-0.6,2.3-0.6h1.1v-0.5c0-0.4-0.1-0.7-0.4-1c-0.2-0.2-0.6-0.4-1.1-0.4
			c-0.4,0-0.8,0.1-1.1,0.3c-0.3,0.2-0.4,0.5-0.4,0.8H297c0-0.3,0.1-0.7,0.4-1c0.2-0.3,0.6-0.6,1-0.8c0.4-0.2,0.9-0.3,1.4-0.3
			c0.8,0,1.4,0.2,1.9,0.6s0.7,0.9,0.7,1.6v3.2c0,0.6,0.1,1.1,0.2,1.5v0.1H301.3z M299.4,317.5c0.4,0,0.7-0.1,1-0.3s0.6-0.4,0.7-0.7
			V315h-0.9c-1.4,0-2.2,0.4-2.2,1.3c0,0.4,0.1,0.7,0.4,0.9S299,317.5,299.4,317.5z"/>
		<path class="st1" d="M307.5,312.6c-0.2,0-0.4,0-0.6,0c-0.8,0-1.3,0.3-1.6,1v4.9h-1.2v-6.9h1.1l0,0.8c0.4-0.6,0.9-0.9,1.6-0.9
			c0.2,0,0.4,0,0.5,0.1V312.6z"/>
		<path class="st1" d="M308.3,314.9c0-1.1,0.2-1.9,0.7-2.6s1.2-0.9,2-0.9c0.8,0,1.5,0.3,2,0.9l0.1-0.8h1.1v6.7
			c0,0.9-0.3,1.6-0.8,2.1c-0.5,0.5-1.2,0.8-2.1,0.8c-0.5,0-1-0.1-1.5-0.3c-0.5-0.2-0.8-0.5-1.1-0.9l0.6-0.7c0.5,0.6,1.1,0.9,1.8,0.9
			c0.6,0,1-0.2,1.3-0.5c0.3-0.3,0.5-0.8,0.5-1.4v-0.6c-0.5,0.5-1.1,0.8-1.9,0.8c-0.8,0-1.5-0.3-2-1
			C308.5,316.9,308.3,316,308.3,314.9z M309.4,315c0,0.8,0.2,1.4,0.5,1.8s0.8,0.7,1.3,0.7c0.7,0,1.3-0.3,1.6-1v-3.1
			c-0.4-0.7-0.9-1-1.6-1c-0.6,0-1,0.2-1.3,0.7C309.6,313.5,309.4,314.1,309.4,315z"/>
		<path class="st1" d="M320.1,318.4c-0.1-0.1-0.1-0.4-0.2-0.7c-0.5,0.6-1.2,0.9-2,0.9c-0.7,0-1.2-0.2-1.7-0.6
			c-0.4-0.4-0.7-0.9-0.7-1.5c0-0.7,0.3-1.3,0.8-1.7c0.5-0.4,1.3-0.6,2.3-0.6h1.1v-0.5c0-0.4-0.1-0.7-0.4-1s-0.6-0.4-1.1-0.4
			c-0.4,0-0.8,0.1-1.1,0.3c-0.3,0.2-0.4,0.5-0.4,0.8h-1.2c0-0.3,0.1-0.7,0.4-1c0.2-0.3,0.6-0.6,1-0.8c0.4-0.2,0.9-0.3,1.4-0.3
			c0.8,0,1.4,0.2,1.9,0.6c0.4,0.4,0.7,0.9,0.7,1.6v3.2c0,0.6,0.1,1.1,0.2,1.5v0.1H320.1z M318.2,317.5c0.4,0,0.7-0.1,1-0.3
			s0.6-0.4,0.7-0.7V315H319c-1.4,0-2.2,0.4-2.2,1.3c0,0.4,0.1,0.7,0.4,0.9C317.5,317.4,317.8,317.5,318.2,317.5z"/>
		<path class="st1" d="M326.4,312.6c-0.2,0-0.4,0-0.6,0c-0.8,0-1.3,0.3-1.6,1v4.9H323v-6.9h1.1l0,0.8c0.4-0.6,0.9-0.9,1.6-0.9
			c0.2,0,0.4,0,0.5,0.1V312.6z"/>
	</g>
	<path id="Trazado_386" class="st3" d="M323.9,293.7c3.2-3.2,2.2-3.9-1-7.2c0,0-2.4,2.5-5.1,5.2v-19c0-2-1.6-3.7-3.7-3.7h-3.7v3.7
		v19c-2.5-2.5-4.8-4.7-4.8-4.7c-3.2,3.2-3.5,4.7-0.8,7.3l9.2,9.2L323.9,293.7z"/>
</g>
</svg>
