<svg xmlns="http://www.w3.org/2000/svg" width="42.981" height="51.982" viewBox="0 0 42.981 51.982">
  <g id="Grupo_106" data-name="Grupo 106" transform="translate(-730.977 -1183.088)">
    <path id="Trazado_368" data-name="Trazado 368" d="M755.677,1193.546H739.724a8.481,8.481,0,0,0-8.747,8.189l.02,36.014s6.2.052,8.727.052h17.66a8.484,8.484,0,0,0,8.75-8.19v-26.818H755.677Zm4.468,12.494.081,21.651c.013,3.468-.965,3.995-4.939,3.987l-18.349,0,.066-28.049c0-3.387,2.055-4.117,5.672-4.117h9.639v6.532Z" transform="translate(0 -2.731)" fill="#c00d0d"/>
    <g id="Grupo_55" data-name="Grupo 55" transform="translate(741.799 1207.858)">
      <path id="Trazado_369" data-name="Trazado 369" d="M758.447,1238.14H745.624v.743a.745.745,0,0,0,.745.746h12.823v-.746A.744.744,0,0,0,758.447,1238.14Z" transform="translate(-745.624 -1222.234)" fill="#c00d0d"/>
      <path id="Trazado_370" data-name="Trazado 370" d="M758.447,1223.788H745.624v.745a.744.744,0,0,0,.745.745h12.823v-.745A.745.745,0,0,0,758.447,1223.788Z" transform="translate(-745.624 -1218.486)" fill="#c00d0d"/>
      <path id="Trazado_371" data-name="Trazado 371" d="M758.447,1230.964H745.624v.743a.745.745,0,0,0,.745.746h12.823v-.746A.745.745,0,0,0,758.447,1230.964Z" transform="translate(-745.624 -1220.36)" fill="#c00d0d"/>
      <path id="Trazado_372" data-name="Trazado 372" d="M758.447,1216.612H745.624v.745a.745.745,0,0,0,.745.746h12.823v-.746A.746.746,0,0,0,758.447,1216.612Z" transform="translate(-745.624 -1216.612)" fill="#c00d0d"/>
    </g>
    <path id="Trazado_373" data-name="Trazado 373" d="M745.624,1216.612v.745a.745.745,0,0,0,.745.746h12.823v-.746a.746.746,0,0,0-.745-.745H745.624Z" transform="translate(-3.825 -8.754)" fill="#c00d0d"/>
    <path id="Trazado_374" data-name="Trazado 374" d="M758.447,1223.788H745.624v.745a.744.744,0,0,0,.745.745h12.823v-.745A.745.745,0,0,0,758.447,1223.788Z" transform="translate(-3.825 -10.628)" fill="#c00d0d"/>
    <path id="Trazado_375" data-name="Trazado 375" d="M758.447,1230.964H745.624v.743a.745.745,0,0,0,.745.746h12.823v-.746A.745.745,0,0,0,758.447,1230.964Z" transform="translate(-3.825 -12.502)" fill="#c00d0d"/>
    <path id="Trazado_376" data-name="Trazado 376" d="M758.447,1238.14H745.624v.743a.745.745,0,0,0,.745.746h12.823v-.746A.744.744,0,0,0,758.447,1238.14Z" transform="translate(-3.825 -14.376)" fill="#c00d0d"/>
    <path id="Trazado_377" data-name="Trazado 377" d="M747.549,1209.3h6.671v-3.241h-8.881v1.416A2.152,2.152,0,0,0,747.549,1209.3Z" transform="translate(-3.75 -5.999)" fill="#c00d0d"/>
    <g id="Grupo_57" data-name="Grupo 57" transform="translate(757.47 1191.699)">
      <g id="Grupo_56" data-name="Grupo 56" transform="translate(0 0)">
        <path id="Trazado_378" data-name="Trazado 378" d="M768.485,1196.4l-1.652-1.66v6.57h6.542l-1.182-1.186Z" transform="translate(-766.833 -1194.742)" fill="#c00d0d"/>
      </g>
    </g>
    <path id="Trazado_379" data-name="Trazado 379" d="M770.5,1188.824l-5.742-5.736H751.087c-4.994,0-4.752,5.4-4.717,5.935h.5s13.535.043,14.644.041h.694l9.76,9.808.081,28.463c.86-.005,1.375,0,2.2,0,3.728,0,3.728-4.687,3.728-4.687V1196.3Z" transform="translate(-4.016)" fill="#c00d0d"/>
  </g>
</svg>
