<svg xmlns="http://www.w3.org/2000/svg" width="39" height="76.737" viewBox="0 0 39 76.737">
  <g id="Grupo_107" data-name="Grupo 107" transform="translate(-192 -251.634)">
    <text id="Enviar" transform="translate(193 306.372)" fill="#414b50" font-size="13" font-family="Roboto-Regular, Roboto" letter-spacing="0.005em"><tspan x="0" y="12">Enviar</tspan></text>
    <path id="Trazado_387" data-name="Trazado 387" d="M597.338,1205.153v9.612a11.478,11.478,0,0,0,11.477,11.477h15.254a11.49,11.49,0,0,0,11.478-11.477v-21.089H608.815A11.49,11.49,0,0,0,597.338,1205.153Zm32.483,9.612a5.758,5.758,0,0,1-5.752,5.752H608.815a5.752,5.752,0,0,1-5.751-5.752v-9.612a5.757,5.757,0,0,1,5.751-5.752h21.006Z" transform="translate(-405.338 -922.769)" fill="#a6abad"/>
    <path id="Trazado_388" data-name="Trazado 388" d="M882.814,1209.453c-3.233-3.234-3.948-2.2-7.187,1.041,0,0,2.457,2.415,5.182,5.115l-19.027,0a3.665,3.665,0,0,0-3.663,3.663v3.661l3.663,0H880.76c-2.541,2.472-4.693,4.752-4.693,4.752,3.155,3.155,4.688,3.463,7.321.828l9.245-9.243Z" transform="translate(-1007.414 1145.682) rotate(-90)" fill="#c00d0d" stroke="#fff" stroke-width="2"/>
  </g>
</svg>
