<svg xmlns="http://www.w3.org/2000/svg" width="110.38" height="122.67" viewBox="0 0 110.38 122.67">
  <path id="ic_fingerprint_24px" d="M93.853,17.15a2.849,2.849,0,0,1-1.411-.368C80.666,10.71,70.485,8.133,58.279,8.133a70.171,70.171,0,0,0-34.164,8.648,3.074,3.074,0,0,1-2.944-5.4A77.015,77.015,0,0,1,58.279,2c13.064,0,24.473,2.883,36.985,9.323a3.1,3.1,0,0,1-1.411,5.827Zm-87.77,32.2A3.2,3.2,0,0,1,4.3,48.8a3.058,3.058,0,0,1-.736-4.293,63.414,63.414,0,0,1,23-20.057c19.259-9.936,43.916-10,63.236-.061a63.655,63.655,0,0,1,23,19.934,3.08,3.08,0,0,1-5.029,3.557A57.58,57.58,0,0,0,86.984,29.846c-17.6-9.016-40.113-9.016-57.655.061A58.186,58.186,0,0,0,8.475,48.063a2.674,2.674,0,0,1-2.392,1.288Zm38.334,74.031a2.877,2.877,0,0,1-2.147-.92,62.005,62.005,0,0,1-12.328-16.192A54.447,54.447,0,0,1,23.5,79.65c0-18.216,15.579-33.06,34.716-33.06S92.933,61.434,92.933,79.65a3.067,3.067,0,0,1-6.133,0c0-14.843-12.819-26.926-28.582-26.926S29.636,64.807,29.636,79.65a48.051,48.051,0,0,0,5.7,23.614,58.056,58.056,0,0,0,11.347,14.843,3.149,3.149,0,0,1,0,4.355,3.364,3.364,0,0,1-2.269.92Zm43.977-11.347a33.03,33.03,0,0,1-19.014-5.459,32.657,32.657,0,0,1-14.6-26.926,3.067,3.067,0,1,1,6.133,0,26.381,26.381,0,0,0,11.9,21.835c4.355,2.944,9.446,4.355,15.579,4.355a40.534,40.534,0,0,0,6.379-.613,3.081,3.081,0,0,1,1.043,6.072,41.884,41.884,0,0,1-7.422.736ZM76.066,124.67a3.59,3.59,0,0,1-.8-.123c-9.752-2.7-16.131-6.318-22.817-12.88A44.754,44.754,0,0,1,39.142,79.65c0-9.936,8.464-18.032,18.891-18.032s18.891,8.1,18.891,18.032c0,6.563,5.7,11.9,12.758,11.9s12.758-5.336,12.758-11.9c0-23.123-19.934-41.892-44.468-41.892-17.419,0-33.366,9.691-40.542,24.718A39.457,39.457,0,0,0,13.811,79.65a60.951,60.951,0,0,0,4.109,22.142,2.993,2.993,0,0,1-1.779,3.925,3.042,3.042,0,0,1-3.925-1.779A68.331,68.331,0,0,1,7.739,79.65,46.079,46.079,0,0,1,11.91,59.777c8.158-17.112,26.251-28.214,46.063-28.214,27.907,0,50.6,21.529,50.6,48.025,0,9.936-8.464,18.032-18.891,18.032s-18.891-8.1-18.891-18.032c0-6.563-5.7-11.9-12.758-11.9s-12.758,5.336-12.758,11.9a38.625,38.625,0,0,0,11.47,27.662c5.827,5.765,11.408,8.955,20.057,11.347a3.044,3.044,0,0,1,2.147,3.741,2.993,2.993,0,0,1-2.883,2.331Z" transform="translate(-2.997 -2)" fill="#e4e4e4"/>
</svg>
