<?xml version="1.0" encoding="utf-8"?>
<!-- Generator: Adobe Illustrator 24.0.1, SVG Export Plug-In . SVG Version: 6.00 Build 0)  -->
<svg version="1.1" id="Capa_1" xmlns="http://www.w3.org/2000/svg" xmlns:xlink="http://www.w3.org/1999/xlink" x="0px" y="0px"
	 viewBox="0 0 135 105" style="enable-background:new 0 0 135 105;" xml:space="preserve">
<style type="text/css">
	.st0{fill:none;}
	.st1{fill:#414B50;}
	.st2{enable-background:new    ;}
</style>
<g id="Grupo_96" transform="translate(-42 -264)">
	<g id="Grupo_93">
		<rect id="Rectángulo_111" x="42" y="264" class="st0" width="135" height="105"/>
		<g id="Grupo_45" transform="translate(-380.892 -589.054)">
			<path id="Trazado_351" class="st1" d="M477.9,865.4c-6.6,0-12,5.4-12,12c0,6.6,5.4,12,12,12c6.6,0,12-5.4,12-12l0,0
				C490,870.8,484.6,865.4,477.9,865.4z M477.9,886.1c-4.8,0-8.7-3.9-8.7-8.7c0-4.8,3.9-8.7,8.7-8.7c4.8,0,8.7,3.9,8.7,8.7
				C486.6,882.2,482.7,886.1,477.9,886.1L477.9,886.1z"/>
			<path id="Trazado_352" class="st1" d="M481.6,872.1l-5.7,4.4c-0.5,0.5-0.5,1.2-0.1,1.7c0.5,0.5,1.2,0.5,1.7,0.1c0,0,0,0,0.1-0.1
				l4.2-4.2l0,0c0.3-0.4,0.4-0.9,0.2-1.3C482,872.5,481.8,872.3,481.6,872.1z"/>
			<path id="Trazado_353" class="st1" d="M482.1,882.2l-4.4-5.7c-0.5-0.5-1.2-0.5-1.7-0.1c-0.5,0.5-0.5,1.2-0.1,1.7c0,0,0,0,0.1,0.1
				l4.2,4.2l0,0c0.4,0.3,0.9,0.4,1.3,0.2C481.7,882.5,481.9,882.4,482.1,882.2z"/>
			<path id="Trazado_354" class="st1" d="M503.1,886.8l-4.5-1.2c-3.1-0.8-4.1-1.7-4.1-3.6c0-2.5,2-4.3,5-4.3c2.7,0,5.2,0.7,8.6,2.7
				c0,0,0.4-0.6,0.9-1.3c1.1-2,0.3-4.4-1.6-5.5c-0.1,0-0.1-0.1-0.2-0.1c-1.6-1-3.5-1.7-5.4-1.8l-0.1-3.3c0-1.6-1.3-2.8-2.8-2.8
				c-0.8,0-2.8,0.1-2.8,0.1s0,2,0,2.8l-0.2,2.4c-5.8,1.1-9.9,6.3-9.7,12.3c0,2,0.6,3.9,1.6,5.6c1.4,2.2,3.7,3.6,7.3,4.6l4.1,1
				c3.3,0.8,4.9,2.3,4.9,4.7c0,3.3-2.1,5-6.4,5.1c-3.7,0.1-6.7-1.1-10.1-2.8l-0.8,1.7c0,0-1.6,3.5,1.6,5c2.6,1.1,5.4,1.9,8.3,2.2
				l0,3.6c0,0.7,0.1,2.8,0.1,2.8l2.8,0c1.5,0,2.8-1.3,2.8-2.8l-0.1-4c6.4-1.5,10.3-6,10.2-12C512.5,892.1,509.2,888.3,503.1,886.8z"
				/>
			<path id="Trazado_355" class="st1" d="M505,886.8l-4.5-1.2c-3.1-0.8-4.1-1.7-4.1-3.6c0-2.5,2-4.3,5-4.3c2.7,0,5.2,0.7,8.6,2.7
				c0,0,0.4-0.6,0.9-1.3c1.1-2,0.3-4.4-1.6-5.5c-0.1,0-0.1-0.1-0.2-0.1c-1.6-1-3.5-1.7-5.4-1.8l-0.1-3.3c0-1.6-1.3-2.8-2.8-2.8
				c-0.8,0-2.8,0.1-2.8,0.1s0,2,0,2.8l0.1,3.4c-6.1,1.2-10,5.5-9.9,11.3c0,2,0.6,3.9,1.6,5.6c1.4,2.2,3.7,3.6,7.3,4.6l4.1,1
				c3.3,0.8,4.9,2.3,4.9,4.7c0,3.3-2.1,5-6.4,5.1c-3.7,0.1-6.7-1.1-10.1-2.8l-0.8,1.7c0,0-1.6,3.5,1.6,5c2.6,1.1,5.4,1.9,8.3,2.2
				l0,3.6c0,0.7,0.1,2.8,0.1,2.8l2.8,0c1.5,0,2.8-1.3,2.8-2.8l-0.1-4c6.4-1.5,10.3-6,10.2-12C514.4,892.1,511.1,888.3,505,886.8z"/>
		</g>
		<g class="st2">
			<path class="st1" d="M57.8,347.6h6.1v1.4h-7.8v-12.8h1.7V347.6z"/>
			<path class="st1" d="M65.6,337c0-0.3,0.1-0.5,0.2-0.7s0.4-0.3,0.7-0.3s0.6,0.1,0.7,0.3s0.2,0.4,0.2,0.7s-0.1,0.5-0.2,0.7
				s-0.4,0.3-0.7,0.3s-0.6-0.1-0.7-0.3S65.6,337.2,65.6,337z M67.3,349h-1.6v-9.5h1.6V349z"/>
			<path class="st1" d="M69.6,344.2c0-1.5,0.3-2.7,1-3.5c0.7-0.9,1.6-1.3,2.8-1.3c1.1,0,2,0.4,2.7,1.1l0.1-1h1.5v13.2H76v-4.5
				c-0.7,0.7-1.5,1.1-2.6,1.1c-1.1,0-2.1-0.4-2.7-1.3s-1-2.1-1-3.6V344.2z M71.2,344.4c0,1.1,0.2,1.9,0.7,2.6s1.1,0.9,1.9,0.9
				c1,0,1.7-0.4,2.2-1.3v-4.7c-0.5-0.8-1.2-1.3-2.2-1.3c-0.8,0-1.4,0.3-1.9,0.9C71.5,342.2,71.2,343.1,71.2,344.4z"/>
			<path class="st1" d="M86.2,348.1c-0.6,0.7-1.6,1.1-2.8,1.1c-1,0-1.8-0.3-2.3-0.9c-0.5-0.6-0.8-1.5-0.8-2.6v-6.2h1.6v6.1
				c0,1.4,0.6,2.2,1.8,2.2c1.2,0,2.1-0.5,2.5-1.4v-6.9h1.6v9.5h-1.5L86.2,348.1z"/>
			<path class="st1" d="M90.3,337c0-0.3,0.1-0.5,0.2-0.7s0.4-0.3,0.7-0.3s0.6,0.1,0.7,0.3s0.2,0.4,0.2,0.7s-0.1,0.5-0.2,0.7
				s-0.4,0.3-0.7,0.3s-0.6-0.1-0.7-0.3S90.3,337.2,90.3,337z M92.1,349h-1.6v-9.5h1.6V349z"/>
			<path class="st1" d="M94.4,344.2c0-1.5,0.3-2.6,1-3.5c0.7-0.9,1.6-1.3,2.7-1.3c1.1,0,2,0.4,2.6,1.1v-5h1.6V349h-1.5l-0.1-1
				c-0.7,0.8-1.6,1.2-2.7,1.2c-1.1,0-2-0.5-2.7-1.4s-1-2.1-1-3.5V344.2z M96,344.4c0,1.1,0.2,1.9,0.7,2.5s1.1,0.9,1.8,0.9
				c1,0,1.8-0.5,2.3-1.4V342c-0.5-0.9-1.2-1.3-2.2-1.3c-0.8,0-1.4,0.3-1.9,0.9S96,343.1,96,344.4z"/>
			<path class="st1" d="M110.8,349c-0.1-0.2-0.2-0.5-0.2-1c-0.8,0.8-1.7,1.2-2.7,1.2c-0.9,0-1.7-0.3-2.3-0.8s-0.9-1.2-0.9-2
				c0-1,0.4-1.8,1.1-2.3s1.8-0.8,3.2-0.8h1.6v-0.7c0-0.6-0.2-1-0.5-1.4c-0.3-0.3-0.8-0.5-1.5-0.5c-0.6,0-1.1,0.1-1.5,0.4
				s-0.6,0.6-0.6,1.1h-1.6c0-0.5,0.2-0.9,0.5-1.4s0.8-0.8,1.4-1.1s1.2-0.4,1.9-0.4c1.1,0,2,0.3,2.6,0.8s0.9,1.3,1,2.3v4.4
				c0,0.9,0.1,1.6,0.3,2.1v0.1H110.8z M108.1,347.8c0.5,0,1-0.1,1.5-0.4c0.5-0.3,0.8-0.6,1-1v-2h-1.3c-2,0-3,0.6-3,1.7
				c0,0.5,0.2,0.9,0.5,1.2S107.6,347.8,108.1,347.8z"/>
			<path class="st1" d="M118.7,347.8c0.6,0,1.1-0.2,1.5-0.5s0.7-0.8,0.7-1.3h1.5c0,0.5-0.2,1.1-0.6,1.6s-0.8,0.9-1.4,1.2
				s-1.2,0.4-1.8,0.4c-1.3,0-2.3-0.4-3.1-1.3c-0.8-0.9-1.1-2-1.1-3.5v-0.3c0-0.9,0.2-1.7,0.5-2.5s0.8-1.3,1.5-1.7s1.4-0.6,2.3-0.6
				c1.1,0,2,0.3,2.7,1s1.1,1.5,1.1,2.5h-1.5c0-0.6-0.3-1.1-0.7-1.5c-0.4-0.4-0.9-0.6-1.6-0.6c-0.8,0-1.5,0.3-1.9,0.9
				s-0.7,1.5-0.7,2.6v0.3c0,1.1,0.2,1.9,0.7,2.5S117.8,347.8,118.7,347.8z"/>
			<path class="st1" d="M124.3,337c0-0.3,0.1-0.5,0.2-0.7s0.4-0.3,0.7-0.3s0.6,0.1,0.7,0.3s0.2,0.4,0.2,0.7s-0.1,0.5-0.2,0.7
				s-0.4,0.3-0.7,0.3s-0.6-0.1-0.7-0.3S124.3,337.2,124.3,337z M126.1,349h-1.6v-9.5h1.6V349z"/>
			<path class="st1" d="M128.3,344.2c0-0.9,0.2-1.8,0.5-2.5s0.9-1.3,1.5-1.7s1.4-0.6,2.2-0.6c1.3,0,2.3,0.4,3.1,1.3s1.2,2.1,1.2,3.6
				v0.1c0,0.9-0.2,1.8-0.5,2.5c-0.4,0.7-0.9,1.3-1.5,1.7s-1.4,0.6-2.3,0.6c-1.3,0-2.3-0.4-3.1-1.3s-1.2-2.1-1.2-3.6V344.2z
				 M130,344.4c0,1.1,0.2,1.9,0.7,2.5s1.1,1,2,1c0.8,0,1.5-0.3,2-1c0.5-0.6,0.7-1.6,0.7-2.7c0-1-0.2-1.9-0.7-2.5c-0.5-0.6-1.2-1-2-1
				c-0.8,0-1.5,0.3-1.9,1S130,343.2,130,344.4z"/>
			<path class="st1" d="M140.6,339.5l0.1,1.2c0.7-0.9,1.7-1.4,2.8-1.4c2,0,3,1.1,3,3.4v6.3H145v-6.3c0-0.7-0.2-1.2-0.5-1.5
				s-0.8-0.5-1.4-0.5c-0.5,0-1,0.1-1.4,0.4s-0.7,0.7-0.9,1.1v6.8h-1.6v-9.5H140.6z"/>
			<path class="st1" d="M153.1,349.2c-1.3,0-2.3-0.4-3.1-1.3s-1.2-2-1.2-3.4v-0.3c0-0.9,0.2-1.8,0.5-2.5s0.9-1.3,1.5-1.7
				s1.3-0.6,2.1-0.6c1.2,0,2.2,0.4,2.9,1.2s1,2,1,3.5v0.7h-6.4c0,0.9,0.3,1.7,0.8,2.3c0.5,0.6,1.2,0.9,2,0.9c0.6,0,1.1-0.1,1.5-0.4
				s0.7-0.5,1-0.9l1,0.8C155.8,348.6,154.7,349.2,153.1,349.2z M152.9,340.7c-0.7,0-1.2,0.2-1.7,0.7s-0.7,1.1-0.8,2h4.8v-0.1
				c0-0.8-0.3-1.5-0.7-1.9S153.5,340.7,152.9,340.7z"/>
			<path class="st1" d="M164.3,346.5c0-0.4-0.2-0.8-0.5-1c-0.3-0.2-0.9-0.5-1.7-0.6s-1.5-0.4-2-0.6s-0.8-0.5-1.1-0.9
				s-0.3-0.7-0.3-1.2c0-0.8,0.3-1.4,1-2s1.5-0.8,2.5-0.8c1.1,0,2,0.3,2.6,0.8s1,1.3,1,2.1h-1.6c0-0.4-0.2-0.8-0.6-1.2
				s-0.9-0.5-1.4-0.5c-0.6,0-1.1,0.1-1.4,0.4s-0.5,0.6-0.5,1c0,0.4,0.2,0.7,0.5,0.9s0.9,0.4,1.7,0.6s1.5,0.4,2,0.7s0.9,0.6,1.1,0.9
				c0.2,0.4,0.4,0.8,0.4,1.3c0,0.8-0.3,1.5-1,2c-0.7,0.5-1.6,0.8-2.6,0.8c-0.8,0-1.4-0.1-2-0.4s-1-0.6-1.4-1.1
				c-0.3-0.5-0.5-1-0.5-1.6h1.6c0,0.5,0.2,1,0.7,1.3c0.4,0.3,0.9,0.5,1.6,0.5c0.6,0,1.1-0.1,1.5-0.4
				C164.1,347.2,164.3,346.9,164.3,346.5z"/>
		</g>
	</g>
</g>
</svg>
