<?xml version="1.0" encoding="utf-8"?>
<!-- Generator: Adobe Illustrator 24.0.1, SVG Export Plug-In . SVG Version: 6.00 Build 0)  -->
<svg version="1.1" id="Capa_1" xmlns="http://www.w3.org/2000/svg" xmlns:xlink="http://www.w3.org/1999/xlink" x="0px" y="0px"
	 viewBox="0 0 135 105" style="enable-background:new 0 0 135 105;" xml:space="preserve">
<style type="text/css">
	.st0{fill:none;}
	.st1{fill:#414B50;}
	.st2{enable-background:new    ;}
</style>
<g id="Grupo_100" transform="translate(-42 -384)">
	<rect id="Rectángulo_112" x="42" y="384" class="st0" width="135" height="105"/>
	<g id="Grupo_58" transform="translate(-635.977 -792.717)">
		<path id="Trazado_368" class="st1" d="M755.7,1190.8h-16c-4.7-0.1-8.6,3.5-8.7,8.2l0,36c0,0,6.2,0.1,8.7,0.1h17.7
			c4.7,0.1,8.6-3.5,8.8-8.2v-26.8h-10.5V1190.8z M760.1,1203.3l0.1,21.7c0,3.5-1,4-4.9,4h-18.3l0.1-28c0-3.4,2.1-4.1,5.7-4.1h9.6
			v6.5L760.1,1203.3z"/>
		<g id="Grupo_55" transform="translate(741.799 1207.858)">
			<path id="Trazado_369" class="st1" d="M12.8,15.9H0v0.7c0,0.4,0.3,0.7,0.7,0.7c0,0,0,0,0,0h12.8v-0.7
				C13.6,16.2,13.2,15.9,12.8,15.9C12.8,15.9,12.8,15.9,12.8,15.9z"/>
			<path id="Trazado_370" class="st1" d="M12.8,5.3H0V6c0,0.4,0.3,0.7,0.7,0.7c0,0,0,0,0,0h12.8V6C13.6,5.6,13.2,5.3,12.8,5.3z"/>
			<path id="Trazado_371" class="st1" d="M12.8,10.6H0v0.7c0,0.4,0.3,0.7,0.7,0.7c0,0,0,0,0,0h12.8v-0.7
				C13.6,10.9,13.2,10.6,12.8,10.6z"/>
			<path id="Trazado_372" class="st1" d="M12.8,0H0v0.7c0,0.4,0.3,0.7,0.7,0.7c0,0,0,0,0,0h12.8V0.7C13.6,0.3,13.2,0,12.8,0z"/>
		</g>
		<path id="Trazado_373" class="st1" d="M741.8,1207.9v0.7c0,0.4,0.3,0.7,0.7,0.7c0,0,0,0,0,0h12.8v-0.7c0-0.4-0.3-0.7-0.7-0.7
			H741.8z"/>
		<path id="Trazado_374" class="st1" d="M754.6,1213.2h-12.8v0.7c0,0.4,0.3,0.7,0.7,0.7c0,0,0,0,0,0h12.8v-0.7
			C755.4,1213.5,755,1213.2,754.6,1213.2z"/>
		<path id="Trazado_375" class="st1" d="M754.6,1218.5h-12.8v0.7c0,0.4,0.3,0.7,0.7,0.7c0,0,0,0,0,0h12.8v-0.7
			C755.4,1218.8,755,1218.5,754.6,1218.5z"/>
		<path id="Trazado_376" class="st1" d="M754.6,1223.8h-12.8v0.7c0,0.4,0.3,0.7,0.7,0.7c0,0,0,0,0,0h12.8v-0.7
			C755.4,1224.1,755,1223.8,754.6,1223.8C754.6,1223.8,754.6,1223.8,754.6,1223.8z"/>
		<path id="Trazado_377" class="st1" d="M743.8,1203.3h6.7v-3.2h-8.9v1.4C741.8,1202.6,742.7,1203.3,743.8,1203.3z"/>
		<g id="Grupo_57" transform="translate(757.47 1191.699)">
			<g id="Grupo_56" transform="translate(0 0)">
				<path id="Trazado_378" class="st1" d="M1.7,1.7L0,0v6.6h6.5L5.4,5.4L1.7,1.7z"/>
			</g>
		</g>
		<path id="Trazado_379" class="st1" d="M766.5,1188.8l-5.7-5.7h-13.7c-5,0-4.8,5.4-4.7,5.9h0.5c0,0,13.5,0,14.6,0h0.7l9.8,9.8
			l0.1,28.5c0.9,0,1.4,0,2.2,0c3.7,0,3.7-4.7,3.7-4.7v-26.3L766.5,1188.8z"/>
	</g>
	<g class="st2">
		<path class="st1" d="M101.7,454.9l4.2,10.4l4.2-10.4h2.2v12.8h-1.7v-5l0.2-5.4l-4.2,10.4h-1.3l-4.2-10.3l0.2,5.4v5h-1.7v-12.8
			H101.7z"/>
		<path class="st1" d="M115,455.7c0-0.3,0.1-0.5,0.2-0.7s0.4-0.3,0.7-0.3s0.6,0.1,0.7,0.3s0.2,0.4,0.2,0.7s-0.1,0.5-0.2,0.7
			s-0.4,0.3-0.7,0.3s-0.6-0.1-0.7-0.3S115,455.9,115,455.7z M116.8,467.7h-1.6v-9.5h1.6V467.7z"/>
		<path class="st1" d="M125,465.2c0-0.4-0.2-0.8-0.5-1c-0.3-0.2-0.9-0.5-1.7-0.6s-1.5-0.4-2-0.6s-0.8-0.5-1.1-0.9s-0.3-0.7-0.3-1.2
			c0-0.8,0.3-1.4,1-2s1.5-0.8,2.5-0.8c1.1,0,2,0.3,2.6,0.8s1,1.3,1,2.1h-1.6c0-0.4-0.2-0.8-0.6-1.2s-0.9-0.5-1.4-0.5
			c-0.6,0-1.1,0.1-1.4,0.4s-0.5,0.6-0.5,1c0,0.4,0.2,0.7,0.5,0.9s0.9,0.4,1.7,0.6s1.5,0.4,2,0.7s0.9,0.6,1.1,0.9
			c0.2,0.4,0.4,0.8,0.4,1.3c0,0.8-0.3,1.5-1,2c-0.7,0.5-1.6,0.8-2.6,0.8c-0.8,0-1.4-0.1-2-0.4s-1-0.6-1.4-1.1
			c-0.3-0.5-0.5-1-0.5-1.6h1.6c0,0.5,0.2,1,0.7,1.3c0.4,0.3,0.9,0.5,1.6,0.5c0.6,0,1.1-0.1,1.5-0.4C124.8,465.9,125,465.6,125,465.2
			z"/>
	</g>
	<g class="st2">
		<path class="st1" d="M62.9,482.7v-12.8h3.6c1.1,0,2.1,0.2,3,0.7s1.5,1.2,2,2.1s0.7,2,0.7,3.1v0.8c0,1.2-0.2,2.3-0.7,3.2
			s-1.1,1.6-2,2.1s-1.9,0.7-3,0.7H62.9z M64.6,471.3v10h1.8c1.3,0,2.3-0.4,3-1.2s1.1-2,1.1-3.5v-0.7c0-1.5-0.3-2.6-1-3.4
			c-0.7-0.8-1.7-1.2-2.9-1.2H64.6z"/>
		<path class="st1" d="M74.1,477.8c0-0.9,0.2-1.8,0.5-2.5s0.9-1.3,1.5-1.7s1.4-0.6,2.2-0.6c1.3,0,2.3,0.4,3.1,1.3s1.2,2.1,1.2,3.6
			v0.1c0,0.9-0.2,1.8-0.5,2.5c-0.4,0.7-0.9,1.3-1.5,1.7s-1.4,0.6-2.3,0.6c-1.3,0-2.3-0.4-3.1-1.3s-1.2-2.1-1.2-3.6V477.8z M75.7,478
			c0,1.1,0.2,1.9,0.7,2.5s1.1,1,2,1c0.8,0,1.5-0.3,2-1c0.5-0.6,0.7-1.6,0.7-2.7c0-1-0.2-1.9-0.7-2.5c-0.5-0.6-1.2-1-2-1
			c-0.8,0-1.5,0.3-1.9,1S75.7,476.8,75.7,478z"/>
		<path class="st1" d="M88.7,481.5c0.6,0,1.1-0.2,1.5-0.5s0.7-0.8,0.7-1.3h1.5c0,0.5-0.2,1.1-0.6,1.6s-0.8,0.9-1.4,1.2
			s-1.2,0.4-1.8,0.4c-1.3,0-2.3-0.4-3.1-1.3c-0.8-0.9-1.1-2-1.1-3.5v-0.3c0-0.9,0.2-1.7,0.5-2.5s0.8-1.3,1.5-1.7s1.4-0.6,2.3-0.6
			c1.1,0,2,0.3,2.7,1s1.1,1.5,1.1,2.5h-1.5c0-0.6-0.3-1.1-0.7-1.5c-0.4-0.4-0.9-0.6-1.6-0.6c-0.8,0-1.5,0.3-1.9,0.9
			s-0.7,1.5-0.7,2.6v0.3c0,1.1,0.2,1.9,0.7,2.5S87.8,481.5,88.7,481.5z"/>
		<path class="st1" d="M100.2,481.7c-0.6,0.7-1.6,1.1-2.8,1.1c-1,0-1.8-0.3-2.3-0.9c-0.5-0.6-0.8-1.5-0.8-2.6v-6.2H96v6.1
			c0,1.4,0.6,2.2,1.8,2.2c1.2,0,2.1-0.5,2.5-1.4v-6.9h1.6v9.5h-1.5L100.2,481.7z"/>
		<path class="st1" d="M105.9,473.2l0,1.1c0.7-0.8,1.6-1.2,2.8-1.2c1.3,0,2.2,0.5,2.7,1.5c0.3-0.5,0.7-0.8,1.2-1.1s1.1-0.4,1.8-0.4
			c2.1,0,3.1,1.1,3.2,3.3v6.4h-1.6v-6.3c0-0.7-0.2-1.2-0.5-1.5c-0.3-0.3-0.8-0.5-1.6-0.5c-0.6,0-1.1,0.2-1.5,0.5
			c-0.4,0.4-0.6,0.8-0.7,1.5v6.3h-1.6v-6.2c0-1.4-0.7-2.1-2-2.1c-1.1,0-1.8,0.5-2.2,1.4v6.9h-1.6v-9.5H105.9z"/>
		<path class="st1" d="M124.2,482.9c-1.3,0-2.3-0.4-3.1-1.3s-1.2-2-1.2-3.4v-0.3c0-0.9,0.2-1.8,0.5-2.5s0.9-1.3,1.5-1.7
			s1.3-0.6,2.1-0.6c1.2,0,2.2,0.4,2.9,1.2s1,2,1,3.5v0.7h-6.4c0,0.9,0.3,1.7,0.8,2.3c0.5,0.6,1.2,0.9,2,0.9c0.6,0,1.1-0.1,1.5-0.4
			s0.7-0.5,1-0.9l1,0.8C126.9,482.2,125.7,482.9,124.2,482.9z M124,474.3c-0.7,0-1.2,0.2-1.7,0.7s-0.7,1.1-0.8,2h4.8v-0.1
			c0-0.8-0.3-1.5-0.7-1.9S124.6,474.3,124,474.3z"/>
		<path class="st1" d="M131.4,473.2l0.1,1.2c0.7-0.9,1.7-1.4,2.8-1.4c2,0,3,1.1,3,3.4v6.3h-1.6v-6.3c0-0.7-0.2-1.2-0.5-1.5
			s-0.8-0.5-1.4-0.5c-0.5,0-1,0.1-1.4,0.4s-0.7,0.7-0.9,1.1v6.8h-1.6v-9.5H131.4z"/>
		<path class="st1" d="M142,470.9v2.3h1.8v1.3H142v5.9c0,0.4,0.1,0.7,0.2,0.9s0.4,0.3,0.8,0.3c0.2,0,0.4,0,0.8-0.1v1.3
			c-0.4,0.1-0.8,0.2-1.2,0.2c-0.7,0-1.3-0.2-1.6-0.7s-0.6-1.1-0.6-1.9v-5.9h-1.7v-1.3h1.7v-2.3H142z"/>
		<path class="st1" d="M145.2,477.8c0-0.9,0.2-1.8,0.5-2.5s0.9-1.3,1.5-1.7s1.4-0.6,2.2-0.6c1.3,0,2.3,0.4,3.1,1.3s1.2,2.1,1.2,3.6
			v0.1c0,0.9-0.2,1.8-0.5,2.5c-0.4,0.7-0.9,1.3-1.5,1.7s-1.4,0.6-2.3,0.6c-1.3,0-2.3-0.4-3.1-1.3s-1.2-2.1-1.2-3.6V477.8z
			 M146.8,478c0,1.1,0.2,1.9,0.7,2.5s1.1,1,2,1c0.8,0,1.5-0.3,2-1c0.5-0.6,0.7-1.6,0.7-2.7c0-1-0.2-1.9-0.7-2.5c-0.5-0.6-1.2-1-2-1
			c-0.8,0-1.5,0.3-1.9,1S146.8,476.8,146.8,478z"/>
		<path class="st1" d="M161.5,480.2c0-0.4-0.2-0.8-0.5-1c-0.3-0.2-0.9-0.5-1.7-0.6s-1.5-0.4-2-0.6s-0.8-0.5-1.1-0.9
			s-0.3-0.7-0.3-1.2c0-0.8,0.3-1.4,1-2s1.5-0.8,2.5-0.8c1.1,0,2,0.3,2.6,0.8s1,1.3,1,2.1h-1.6c0-0.4-0.2-0.8-0.6-1.2
			s-0.9-0.5-1.4-0.5c-0.6,0-1.1,0.1-1.4,0.4s-0.5,0.6-0.5,1c0,0.4,0.2,0.7,0.5,0.9s0.9,0.4,1.7,0.6s1.5,0.4,2,0.7s0.9,0.6,1.1,0.9
			c0.2,0.4,0.4,0.8,0.4,1.3c0,0.8-0.3,1.5-1,2c-0.7,0.5-1.6,0.8-2.6,0.8c-0.8,0-1.4-0.1-2-0.4s-1-0.6-1.4-1.1
			c-0.3-0.5-0.5-1-0.5-1.6h1.6c0,0.5,0.2,1,0.7,1.3c0.4,0.3,0.9,0.5,1.6,0.5c0.6,0,1.1-0.1,1.5-0.4
			C161.3,480.9,161.5,480.6,161.5,480.2z"/>
	</g>
</g>
</svg>
