<?xml version="1.0" encoding="utf-8"?>
<!-- Generator: Adobe Illustrator 24.0.1, SVG Export Plug-In . SVG Version: 6.00 Build 0)  -->
<svg version="1.1" id="Capa_1" xmlns="http://www.w3.org/2000/svg" xmlns:xlink="http://www.w3.org/1999/xlink" x="0px" y="0px"
	 viewBox="0 0 135 105" style="enable-background:new 0 0 135 105;" xml:space="preserve">
<style type="text/css">
	.st0{fill:none;}
	.st1{enable-background:new    ;}
	.st2{fill:#414B50;}
</style>
<g id="Grupo_97" transform="translate(-206 -264)">
	<rect id="Rectángulo_116" x="210.5" y="264" class="st0" width="126" height="105"/>
	<g class="st1">
		<path class="st2" d="M227.1,349h-1.7l-6.4-9.9v9.9h-1.7v-12.8h1.7l6.5,9.9v-9.9h1.7V349z"/>
		<path class="st2" d="M229.5,344.2c0-0.9,0.2-1.8,0.5-2.5s0.9-1.3,1.5-1.7s1.4-0.6,2.2-0.6c1.3,0,2.3,0.4,3.1,1.3s1.2,2.1,1.2,3.6
			v0.1c0,0.9-0.2,1.8-0.5,2.5c-0.4,0.7-0.9,1.3-1.5,1.7s-1.4,0.6-2.3,0.6c-1.3,0-2.3-0.4-3.1-1.3s-1.2-2.1-1.2-3.6V344.2z
			 M231.1,344.4c0,1.1,0.2,1.9,0.7,2.5s1.1,1,2,1c0.8,0,1.5-0.3,2-1c0.5-0.6,0.7-1.6,0.7-2.7c0-1-0.2-1.9-0.7-2.5
			c-0.5-0.6-1.2-1-2-1c-0.8,0-1.5,0.3-1.9,1S231.1,343.2,231.1,344.4z"/>
		<path class="st2" d="M242.5,337.2v2.3h1.8v1.3h-1.8v5.9c0,0.4,0.1,0.7,0.2,0.9s0.4,0.3,0.8,0.3c0.2,0,0.4,0,0.8-0.1v1.3
			c-0.4,0.1-0.8,0.2-1.2,0.2c-0.7,0-1.3-0.2-1.6-0.7s-0.6-1.1-0.6-1.9v-5.9h-1.7v-1.3h1.7v-2.3H242.5z"/>
		<path class="st2" d="M246.2,337c0-0.3,0.1-0.5,0.2-0.7s0.4-0.3,0.7-0.3s0.6,0.1,0.7,0.3s0.2,0.4,0.2,0.7s-0.1,0.5-0.2,0.7
			s-0.4,0.3-0.7,0.3s-0.6-0.1-0.7-0.3S246.2,337.2,246.2,337z M248,349h-1.6v-9.5h1.6V349z"/>
		<path class="st2" d="M251.5,349v-8.3H250v-1.3h1.5v-1c0-1,0.3-1.8,0.8-2.4s1.3-0.8,2.3-0.8c0.4,0,0.7,0,1.1,0.1l-0.1,1.3
			c-0.3-0.1-0.6-0.1-0.9-0.1c-0.5,0-0.9,0.2-1.2,0.5s-0.4,0.8-0.4,1.3v1h2v1.3h-2v8.3H251.5z"/>
		<path class="st2" d="M257,337c0-0.3,0.1-0.5,0.2-0.7s0.4-0.3,0.7-0.3s0.6,0.1,0.7,0.3s0.2,0.4,0.2,0.7s-0.1,0.5-0.2,0.7
			s-0.4,0.3-0.7,0.3s-0.6-0.1-0.7-0.3S257,337.2,257,337z M258.7,349h-1.6v-9.5h1.6V349z"/>
		<path class="st2" d="M265.2,347.8c0.6,0,1.1-0.2,1.5-0.5s0.7-0.8,0.7-1.3h1.5c0,0.5-0.2,1.1-0.6,1.6s-0.8,0.9-1.4,1.2
			s-1.2,0.4-1.8,0.4c-1.3,0-2.3-0.4-3.1-1.3c-0.8-0.9-1.1-2-1.1-3.5v-0.3c0-0.9,0.2-1.7,0.5-2.5s0.8-1.3,1.5-1.7s1.4-0.6,2.3-0.6
			c1.1,0,2,0.3,2.7,1s1.1,1.5,1.1,2.5h-1.5c0-0.6-0.3-1.1-0.7-1.5c-0.4-0.4-0.9-0.6-1.6-0.6c-0.8,0-1.5,0.3-1.9,0.9
			s-0.7,1.5-0.7,2.6v0.3c0,1.1,0.2,1.9,0.7,2.5S264.4,347.8,265.2,347.8z"/>
		<path class="st2" d="M276.8,349c-0.1-0.2-0.2-0.5-0.2-1c-0.8,0.8-1.7,1.2-2.7,1.2c-0.9,0-1.7-0.3-2.3-0.8s-0.9-1.2-0.9-2
			c0-1,0.4-1.8,1.1-2.3s1.8-0.8,3.2-0.8h1.6v-0.7c0-0.6-0.2-1-0.5-1.4c-0.3-0.3-0.8-0.5-1.5-0.5c-0.6,0-1.1,0.1-1.5,0.4
			s-0.6,0.6-0.6,1.1h-1.6c0-0.5,0.2-0.9,0.5-1.4s0.8-0.8,1.4-1.1s1.2-0.4,1.9-0.4c1.1,0,2,0.3,2.6,0.8s0.9,1.3,1,2.3v4.4
			c0,0.9,0.1,1.6,0.3,2.1v0.1H276.8z M274.1,347.8c0.5,0,1-0.1,1.5-0.4s0.8-0.6,1-1v-2h-1.3c-2,0-3,0.6-3,1.7c0,0.5,0.2,0.9,0.5,1.2
			S273.6,347.8,274.1,347.8z"/>
		<path class="st2" d="M284.6,347.8c0.6,0,1.1-0.2,1.5-0.5s0.7-0.8,0.7-1.3h1.5c0,0.5-0.2,1.1-0.6,1.6s-0.8,0.9-1.4,1.2
			s-1.2,0.4-1.8,0.4c-1.3,0-2.3-0.4-3.1-1.3c-0.8-0.9-1.1-2-1.1-3.5v-0.3c0-0.9,0.2-1.7,0.5-2.5s0.8-1.3,1.5-1.7s1.4-0.6,2.3-0.6
			c1.1,0,2,0.3,2.7,1s1.1,1.5,1.1,2.5h-1.5c0-0.6-0.3-1.1-0.7-1.5c-0.4-0.4-0.9-0.6-1.6-0.6c-0.8,0-1.5,0.3-1.9,0.9
			s-0.7,1.5-0.7,2.6v0.3c0,1.1,0.2,1.9,0.7,2.5S283.8,347.8,284.6,347.8z"/>
		<path class="st2" d="M290.3,337c0-0.3,0.1-0.5,0.2-0.7s0.4-0.3,0.7-0.3s0.6,0.1,0.7,0.3s0.2,0.4,0.2,0.7s-0.1,0.5-0.2,0.7
			s-0.4,0.3-0.7,0.3s-0.6-0.1-0.7-0.3S290.3,337.2,290.3,337z M292,349h-1.6v-9.5h1.6V349z"/>
		<path class="st2" d="M294.3,344.2c0-0.9,0.2-1.8,0.5-2.5s0.9-1.3,1.5-1.7s1.4-0.6,2.2-0.6c1.3,0,2.3,0.4,3.1,1.3s1.2,2.1,1.2,3.6
			v0.1c0,0.9-0.2,1.8-0.5,2.5c-0.4,0.7-0.9,1.3-1.5,1.7s-1.4,0.6-2.3,0.6c-1.3,0-2.3-0.4-3.1-1.3s-1.2-2.1-1.2-3.6V344.2z
			 M295.9,344.4c0,1.1,0.2,1.9,0.7,2.5s1.1,1,2,1c0.8,0,1.5-0.3,2-1c0.5-0.6,0.7-1.6,0.7-2.7c0-1-0.2-1.9-0.7-2.5
			c-0.5-0.6-1.2-1-2-1c-0.8,0-1.5,0.3-1.9,1S295.9,343.2,295.9,344.4z"/>
		<path class="st2" d="M306.6,339.5l0.1,1.2c0.7-0.9,1.7-1.4,2.8-1.4c2,0,3,1.1,3,3.4v6.3h-1.6v-6.3c0-0.7-0.2-1.2-0.5-1.5
			s-0.8-0.5-1.4-0.5c-0.5,0-1,0.1-1.4,0.4s-0.7,0.7-0.9,1.1v6.8H305v-9.5H306.6z"/>
		<path class="st2" d="M319,349.2c-1.3,0-2.3-0.4-3.1-1.3s-1.2-2-1.2-3.4v-0.3c0-0.9,0.2-1.8,0.5-2.5s0.9-1.3,1.5-1.7
			s1.3-0.6,2.1-0.6c1.2,0,2.2,0.4,2.9,1.2s1,2,1,3.5v0.7h-6.4c0,0.9,0.3,1.7,0.8,2.3c0.5,0.6,1.2,0.9,2,0.9c0.6,0,1.1-0.1,1.5-0.4
			s0.7-0.5,1-0.9l1,0.8C321.8,348.6,320.6,349.2,319,349.2z M318.8,340.7c-0.7,0-1.2,0.2-1.7,0.7s-0.7,1.1-0.8,2h4.8v-0.1
			c0-0.8-0.3-1.5-0.7-1.9S319.5,340.7,318.8,340.7z"/>
		<path class="st2" d="M330.2,346.5c0-0.4-0.2-0.8-0.5-1c-0.3-0.2-0.9-0.5-1.7-0.6s-1.5-0.4-2-0.6s-0.8-0.5-1.1-0.9
			s-0.3-0.7-0.3-1.2c0-0.8,0.3-1.4,1-2s1.5-0.8,2.5-0.8c1.1,0,2,0.3,2.6,0.8s1,1.3,1,2.1h-1.6c0-0.4-0.2-0.8-0.6-1.2
			s-0.9-0.5-1.4-0.5c-0.6,0-1.1,0.1-1.4,0.4s-0.5,0.6-0.5,1c0,0.4,0.2,0.7,0.5,0.9s0.9,0.4,1.7,0.6s1.5,0.4,2,0.7s0.9,0.6,1.1,0.9
			c0.2,0.4,0.4,0.8,0.4,1.3c0,0.8-0.3,1.5-1,2c-0.7,0.5-1.6,0.8-2.6,0.8c-0.8,0-1.4-0.1-2-0.4s-1-0.6-1.4-1.1
			c-0.3-0.5-0.5-1-0.5-1.6h1.6c0,0.5,0.2,1,0.7,1.3c0.4,0.3,0.9,0.5,1.6,0.5c0.6,0,1.1-0.1,1.5-0.4
			C330,347.2,330.2,346.9,330.2,346.5z"/>
	</g>
	<path id="Trazado_381" class="st2" d="M305.4,284.7l-3.2,3.2c0,0-0.1,0-0.1,0.1l-5.2,5.2c-1.6,0.8-3.4,0.6-4.9-0.4l15.9-15.9
		l1.2-1.2l-1.2-1.2c-0.7-0.7-1.8-0.7-2.5,0l-13,13c-1.6,0.6-3.4,0.2-4.7-0.9l0,0l10.2-10.2c0.4-0.4,1.2-1.2,1.2-1.2l-1.2-1.2
		c-0.7-0.7-1.8-0.7-2.5,0c0,0,0,0,0,0l-8.2,8.2c-1.5,0.6-3.2,0.4-4.6-0.6l5.1-5.1c0.4-0.4,1.2-1.2,1.2-1.2l-1.2-1.2
		c-0.7-0.7-1.8-0.7-2.5,0c0,0,0,0,0,0l-3,3c-1.8,0.8-4,0.4-5.3-1.1c-1.2-1.2-2.1-2.1-2.1-2.1l-6.2,6.2l-18.3,18.3
		c-5.2,5.2-5.1,13.6,0.1,18.7c0,0,0,0,0,0l7.7,7.6l6.2,6.2c0,0,4.5-4.5,6.2-6.2l19.1-19.1c0.1-0.1,0.2-0.2,0.2-0.3l3-3c0,0,0,0,0,0
		l15-15l1.2-1.2l-1.2-1.2C307.1,284.1,306,284.1,305.4,284.7z M255.6,303.5l5.9-5.9l0,0l10.5-10.4l-0.7,17l-16.7,0.7
		C254.9,304.4,255.2,303.9,255.6,303.5z M283.5,301.4l-3.8,3.8l-8.7,8.7l-6.9,6.9l-6.1-6.1l-2.2-2.2l-0.2-0.2
		c-0.8-0.8-1.4-1.9-1.7-3l19.5-0.8c0,0,0.1,0,0.1,0c0.1,0,0.2,0,0.3,0c0.1,0,0.1,0,0.2,0c0.1,0,0.2-0.1,0.2-0.1
		c0.1,0,0.1-0.1,0.2-0.1c0.1,0,0.1-0.1,0.2-0.1c0.1,0,0.1-0.1,0.2-0.1c0.1,0,0.1-0.1,0.2-0.1c0.1-0.1,0.1-0.1,0.1-0.2
		c0,0,0.1-0.1,0.1-0.1c0-0.1,0.1-0.1,0.1-0.2c0,0,0-0.1,0.1-0.1c0-0.1,0.1-0.2,0.1-0.3c0,0,0-0.1,0-0.1c0-0.1,0-0.2,0-0.3
		c0,0,0-0.1,0-0.1l0.9-20.8l7,7l0.4,0.4c0,0,0,0,0,0C285.9,295.5,285.7,299.1,283.5,301.4L283.5,301.4z"/>
</g>
</svg>
