<svg xmlns="http://www.w3.org/2000/svg" width="16.829" height="16" viewBox="0 0 16.829 16">
  <g id="Grupo_15" data-name="Grupo 15" transform="translate(-35.089 -38.671)">
    <path id="Trazado_15" data-name="Trazado 15" d="M51.776,84.585a8.038,8.038,0,0,0-5.559-3.961c-1.006.012-4.2.019-5.3.019a7.994,7.994,0,0,0-5.679,3.924,1.875,1.875,0,0,0-.152.729v1.255h9.788v0h7.042V85.206A2.385,2.385,0,0,0,51.776,84.585Z" transform="translate(0 -31.88)" fill="#ad000d"/>
    <path id="Trazado_16" data-name="Trazado 16" d="M63.415,43.583a3.106,3.106,0,0,1-1.982,2.9,2.937,2.937,0,0,1-1.123.117h0a2.89,2.89,0,0,1-1.29-.187,3.106,3.106,0,0,1-1.815-2.825V41.776a3.1,3.1,0,0,1,3.1-3.105h3.105v4.912Z" transform="translate(-16.807)" fill="#ad000d"/>
  </g>
</svg>
